<?xml version="1.0" encoding="utf-8"?>
<!-- Generator: Adobe Illustrator 19.0.0, SVG Export Plug-In . SVG Version: 6.00 Build 0)  -->
<svg version="1.1" id="Layer_1" xmlns="http://www.w3.org/2000/svg" xmlns:xlink="http://www.w3.org/1999/xlink" x="0px" y="0px"
	 viewBox="206 -116 1024 1024" style="enable-background:new 206 -116 1024 1024;" xml:space="preserve">
<style type="text/css">
	.st0{display:none;fill:#006770;}
	.st1{fill:#FFFFFF;}
	.st2{fill:#E74C3C;}
	.st3{fill:#C0392B;}
	.st4{font-family:'NexaBold';}
	.st5{font-size:166.9065px;}
</style>
<rect x="173" y="-131" class="st0" width="1079" height="1177"/>
<g>
	<g>
		<g>
			<path class="st1" d="M330.6-54.2v714.4h774.7l-3.5-714.4l-107.5-0.2v51.5h-92.5v-51.5H531.4v51.5h-92.5v-51.5L330.6-54.2z
				 M500.6,197.4H375.7V73.1h124.9V197.4z M640.8,197.8H515.9V73.5h124.9V197.8z M779.6,197.7H654.8V73.4h124.9L779.6,197.7
				L779.6,197.7z M919.2,198.2H794.3V73.9h124.9V198.2z M1058.9,197.7H934V73.4h124.9V197.7z M501.1,336.9H376.2V212.6h124.9V336.9z
				 M640.6,336.5H515.7V212.2h124.9V336.5L640.6,336.5z M779.4,336.5H654.5V212.3h124.9L779.4,336.5L779.4,336.5z M919.4,336.9
				H794.5V212.6h124.9L919.4,336.9L919.4,336.9z M502.1,477H377.3V352.7h124.9L502.1,477L502.1,477z M641,476.6H516.1V352.3H641
				V476.6z M779.5,476.6H654.6V352.3h124.9V476.6z M919.5,476.6H794.6V352.3h124.9V476.6z M1058.6,336.4H933.7V212.1h124.9V336.4z
				 M1058.5,476.8H933.6V352.5h124.9V476.8z M500.9,614.6H376V490.3h124.9V614.6z M640.8,614.5H516V490.2h124.9V614.5z M779.7,614.8
				H654.8V490.6h124.9V614.8z M919.6,614.9H794.7V490.6h124.9V614.9z M1058.4,614.5H933.6V490.2h124.9V614.5z"/>
			<path class="st1" d="M917.5-112.4l61.8,0.6v92.7H918L917.5-112.4z"/>
			<path class="st1" d="M454-111.7h62.2l0.2,92.6H454L454-111.7z"/>
		</g>
		<g>
			<path class="st2" d="M571.1,380.5c-32.7-28.4-46.9-59.5-46.9-87.3c0-47.5,35.8-79.1,90-79.1c50.6,0,67.9,20.7,97.5,50.7
				c29.6-30,46.9-50.7,97.4-50.7c54.3,0,90.1,31.6,90.1,79.1c0,27.8-14.2,58.9-46.9,87.3L711.7,504.3L571.1,380.5z"/>
			<path class="st3" d="M583.6,391.9c-32.7-28.4-46.9-59.5-46.9-87.3c0-47.5,35.8-79.1,90-79.1c50.6,0,67.9,20.7,97.5,50.7
				c29.6-30,46.9-50.7,97.4-50.7c54.3,0,90.1,31.6,90.1,79.1c0,27.8-14.2,58.9-46.9,87.3L724.3,515.7L583.6,391.9z"/>
		</g>
	</g>
	<text transform="matrix(1 0 0 1 273.2815 854.9904)" class="st1 st4 st5">Relper App</text>
</g>
</svg>
